<svg width="190" height="42" viewBox="0 0 190 42" fill="none" xmlns="http://www.w3.org/2000/svg">
<path fill-rule="evenodd" clip-rule="evenodd" d="M189.938 20.6578C189.938 31.9208 189.958 36.5528 189.982 30.9513C190.006 25.35 190.006 16.1348 189.982 10.4732C189.958 4.81175 189.938 9.39485 189.938 20.6578ZM53.743 11.7498C53.1884 11.8108 52.3269 12.0044 51.8284 12.1802C50.6911 12.5814 49.4077 13.7935 49.2623 14.6036C49.2072 14.9116 49.1834 19.0595 49.2097 23.8211L49.2573 32.4785L51.224 32.4818C52.3059 32.4837 53.2597 32.4427 53.3436 32.3908C53.4277 32.3388 53.5166 30.5392 53.5412 28.3917L53.586 24.487L54.7876 24.4383L55.9891 24.3895L56.0362 26.2696L56.0833 28.1498L56.5643 27.2341C57.3195 25.7966 58.4332 24.4606 59.508 23.7025L60.4953 23.0063V19.038C60.4953 14.6529 60.4319 14.3043 59.4463 13.276C58.2685 12.0474 56.1631 11.484 53.743 11.7498ZM101.552 11.7597C100.091 11.9311 98.4134 12.7521 97.712 13.639L97.206 14.2788V23.3786V32.4785L99.0374 32.5113C100.045 32.5293 101 32.5055 101.16 32.4584C101.428 32.3798 101.451 32.0237 101.451 28.0554V23.7378H102.214C102.834 23.7378 103.066 23.8284 103.462 24.2245L103.949 24.7111V28.55V32.3889L104.323 32.4823C104.529 32.5336 105.485 32.5538 106.446 32.5271L108.194 32.4785L108.239 28.4387C108.276 25.117 108.239 24.3132 108.035 23.9178C107.765 23.396 106.966 22.8321 106.238 22.6507C105.638 22.5008 105.656 22.3059 106.282 22.1807C106.558 22.1254 107.101 21.7844 107.489 21.423L108.194 20.7657L108.248 17.9699C108.277 16.4322 108.254 14.9236 108.197 14.6178C108.054 13.8594 107.094 12.844 106.057 12.3542C105.298 11.9959 104.864 11.896 103.116 11.6771C102.887 11.6484 102.184 11.6856 101.552 11.7597ZM160.638 12.2406C157.224 12.5801 156.912 12.9972 156.9 17.2338C156.893 19.5075 156.932 19.8861 157.24 20.5208C157.696 21.4646 158.09 21.7227 161.008 22.9935C162.361 23.583 163.6 24.2247 163.76 24.4195C164.002 24.7145 164.051 25.1175 164.051 26.8305C164.051 28.6935 164.021 28.9035 163.729 29.0597C163.333 29.2719 163.045 29.2746 162.719 29.0695C162.524 28.9464 162.451 28.41 162.386 26.6163L162.303 24.3206L159.585 24.2748L156.866 24.229L156.921 27.3548C156.983 30.9188 157.099 31.3216 158.223 31.895C159.836 32.7181 166.673 32.7757 168.213 31.979C168.496 31.8329 168.874 31.4732 169.053 31.1801C169.348 30.6957 169.378 30.3245 169.378 27.1039C169.379 24.4721 169.32 23.4197 169.15 23.0125C168.799 22.1732 167.825 21.4876 165.894 20.7201C163.546 19.7872 162.616 19.3136 162.49 18.9871C162.32 18.5442 162.372 16.084 162.559 15.7354C162.742 15.3929 163.305 15.3155 163.718 15.5761C163.908 15.6958 163.982 16.1555 164.025 17.4882L164.082 19.2427H166.741H169.401L169.348 16.4984L169.296 13.754L168.776 13.2349C168.416 12.8756 167.955 12.6454 167.278 12.4867C166.055 12.2004 162.405 12.0652 160.638 12.2406ZM64.068 12.4582C64.0242 12.5728 64.0079 17.1241 64.0317 22.5724L64.0748 32.4785H68.903H73.7311L73.7794 31.105L73.8279 29.7314H71.1572H68.4868V20.9908V12.2501H66.3172C64.7349 12.2501 64.1261 12.3064 64.068 12.4582ZM72.6836 13.5404L72.7322 14.8307L74.6052 14.8778L76.4782 14.9249V23.7433V32.5617H78.6426C80.5918 32.5617 80.8072 32.5328 80.8097 32.2704C80.8114 32.1101 80.8101 28.1395 80.8069 23.4465L80.8012 14.914H82.7187H84.6361V13.582V12.2501H78.6356H72.635L72.6836 13.5404ZM85.9681 22.4059V32.5617H90.7962H95.6244V31.1508V29.7399L93.0022 29.694L90.38 29.6482V26.2352V22.8222L92.919 22.7762L95.4579 22.7303V21.4027V20.0751H92.8773H90.2968V17.5778V15.0804H92.9606H95.6244V13.6653V12.2501H90.7962H85.9681V22.4059ZM109.977 13.5404L110.026 14.8307L111.892 14.8777L113.758 14.9248L113.807 16.2623L113.855 17.5997L114.593 16.4749C115.664 14.844 117.08 13.5219 118.489 12.8362L119.682 12.2556L114.805 12.253L109.928 12.2501L109.977 13.5404ZM122.929 22.4059V32.5617H127.757H132.585V31.1466V29.7314H129.918H127.25L127.296 26.2768L127.34 22.8222L129.879 22.7762L132.418 22.7303V21.4027V20.0751H129.838H127.257V17.5778V15.0804H129.921H132.585V13.6653V12.2501H127.757H122.929V22.4059ZM136.085 16.121C136.088 19.5195 136.126 20.0731 136.394 20.6578C136.562 21.0241 136.855 21.4614 137.044 21.6298L137.388 21.9358L136.825 22.6741C136.515 23.0802 136.218 23.6543 136.164 23.9498C136.111 24.2453 136.089 26.2851 136.116 28.4828L136.164 32.4785L138.287 32.5251C140.396 32.5714 140.41 32.5692 140.424 32.1921C140.432 31.9834 140.432 30.1881 140.424 28.2026C140.406 23.6774 140.485 23.4125 141.846 23.4074C142.957 23.4034 142.983 23.4898 143.048 27.4674L143.105 30.9801L143.596 29.4847C144.242 27.519 145.036 26.1306 146.269 24.8127C147.234 23.7808 147.267 23.7162 147.076 23.254C146.966 22.9888 146.694 22.6006 146.471 22.3911L146.066 22.0105L146.557 21.5006C146.828 21.2202 147.128 20.7798 147.226 20.5221C147.332 20.2403 147.402 18.4978 147.402 16.1518V12.2501H145.238H143.074V15.7256C143.074 19.6855 143.013 20.1643 142.469 20.5213C141.957 20.8563 140.981 20.6874 140.732 20.2208C140.618 20.0075 140.557 18.771 140.569 16.897C140.579 15.2558 140.538 13.5388 140.477 13.0814L140.367 12.2501H138.224H136.081L136.085 16.121ZM172.709 20.9582V29.6662L173.193 30.4302C174.697 32.8017 180.138 33.236 182.488 31.1726C183.609 30.1884 183.689 29.8032 183.693 25.3887L183.697 21.4623L182.811 20.8519C181.757 20.1267 180.697 18.8706 179.975 17.4945L179.451 16.4956L179.368 22.9217C179.276 30.0579 179.303 29.8979 178.192 29.8979C177 29.8979 177.037 30.186 177.037 20.9673C177.037 16.4626 176.992 12.6584 176.936 12.5135C176.852 12.2929 176.5 12.2501 174.772 12.2501H172.709V20.9582ZM179.933 12.7912C180.079 13.5303 181.081 15.6135 181.65 16.3589C182.106 16.9581 183.276 17.9107 183.555 17.9107C183.633 17.9107 183.697 16.6371 183.697 15.0804V12.2501H181.761H179.826L179.933 12.7912ZM102.372 14.238C101.555 14.3945 101.457 14.8225 101.454 18.2232L101.451 21.2828L102.316 21.1999C103.018 21.1323 103.267 21.0189 103.648 20.5934C104.112 20.0734 104.115 20.0545 104.115 17.7832C104.115 14.7137 103.751 13.9738 102.372 14.238ZM53.9312 14.6369L53.5028 15.0653V18.486V21.9065H54.7514H56.0001V18.442C56.0001 14.5953 55.9688 14.4696 54.9712 14.3076C54.4611 14.2249 54.2888 14.2795 53.9312 14.6369ZM117.336 17.7205C116.077 18.6455 115.12 20.0646 114.271 22.2668L113.772 23.5605V28.0612V32.5617H115.936C117.88 32.5617 118.102 32.5321 118.116 32.2704C118.176 31.1852 118.13 17.3853 118.066 17.3219C118.023 17.2783 117.694 17.4576 117.336 17.7205ZM59.5941 27.1519C58.8031 27.6886 58.2813 28.2793 57.683 29.3152C57.0986 30.327 56.4098 32.1945 56.5642 32.3488C56.7203 32.505 59.5633 32.6228 60.0752 32.4943L60.4953 32.3889V29.5618C60.4953 28.0068 60.4309 26.7346 60.3521 26.7346C60.2732 26.7346 59.9321 26.9224 59.5941 27.1519ZM146.512 28.0606C145.611 29.058 144.249 32.007 144.501 32.4147C144.551 32.4956 145.224 32.5617 145.997 32.5617H147.402V29.9812C147.402 28.5619 147.336 27.4006 147.255 27.4006C147.174 27.4006 146.84 27.6976 146.512 28.0606Z" fill="#F3F3F3"/>
<path fill-rule="evenodd" clip-rule="evenodd" d="M17.9246 0.0946136C14.9518 0.51583 11.4858 1.87371 8.92657 3.61984C7.19659 4.80041 4.67911 7.34786 3.52018 9.09083C1.90724 11.5167 0.743155 14.413 0.209559 17.328C-0.126415 19.1624 -0.0478327 22.8451 0.369554 24.8367C2.08755 33.0337 8.37383 39.315 16.6255 41.0796C18.7782 41.54 22.4283 41.5758 24.5795 41.1577C35.323 39.0699 42.6583 29.0418 41.3439 18.2394C40.7963 13.739 38.8531 9.64557 35.7186 6.38888C32.7478 3.30252 29.7921 1.58868 25.549 0.492355C24.2938 0.167869 23.4154 0.0653117 21.4537 0.0138667C20.0801 -0.0220949 18.4922 0.0143661 17.9246 0.0946136ZM18.2904 1.61932C13.091 2.28361 8.04252 5.32735 4.99477 9.63558C3.87497 11.2186 2.62331 13.9223 2.11502 15.8568C1.58725 17.8653 1.39579 21.6732 1.72028 23.708C2.85789 30.8409 7.96343 36.7832 14.8774 39.0213C18.9182 40.3294 23.8366 40.1766 27.7346 38.6217C38.4002 34.3676 42.9998 22.2053 37.8408 11.8988C36.0934 8.40789 32.646 5.07312 29.0043 3.3508C25.5947 1.73819 21.9591 1.15065 18.2904 1.61932ZM25.6159 10.2499C24.4919 10.6968 23.0919 11.8289 21.8391 13.304L20.8015 14.5253L19.5459 13.2485C17.386 11.0522 15.8833 10.2521 13.9182 10.2524C10.7278 10.2528 7.39587 13.5516 5.63709 18.4512L5.08401 19.9918L4.87307 19.4924C4.66363 18.9964 4.66163 18.9957 4.59254 19.4018C4.55425 19.6267 4.60885 20.0974 4.71374 20.4478C4.85559 20.9212 4.85742 21.4151 4.7204 22.3698C4.50397 23.8802 4.56207 27.3831 4.80481 27.4429C4.89638 27.4653 4.98995 27.1092 5.01276 26.6514C5.08401 25.2231 5.42015 23.0371 5.54635 23.1826C5.61245 23.259 5.83771 23.8086 6.04665 24.4038C6.25576 24.999 6.78286 26.2352 7.2179 27.1508C9.27919 31.4887 11.2271 32.5124 13.7003 30.5574C14.9118 29.5997 16.0539 28.1456 18.614 24.3014C19.857 22.4347 20.9044 20.9075 20.9414 20.9075C20.9782 20.9075 21.8521 22.0501 22.883 23.4465C26.5948 28.4739 28.0614 29.9289 29.9171 30.4252C31.5803 30.87 33.2542 29.7159 34.7969 27.0609C35.2225 26.3284 35.5896 25.7492 35.6125 25.774C35.6353 25.7986 35.6906 26.3659 35.7352 27.0343C35.8162 28.2478 35.9402 28.6534 36.0962 28.2152C36.1416 28.0877 36.2054 27.0468 36.238 25.9022C36.2953 23.8902 36.3231 23.7531 37.0776 21.7776C37.9274 19.5526 38.0213 19.1895 37.7696 19.1005C37.678 19.068 37.2899 19.8806 36.907 20.9064C36.5242 21.9321 36.1819 22.8003 36.1463 22.836C36.1107 22.8716 35.9465 22.1713 35.7815 21.2798C35.0365 17.2549 33.5812 14.2298 31.2682 11.8977C29.5029 10.1177 27.4518 9.51987 25.6159 10.2499ZM11.4342 13.887C10.9599 14.0532 10.2298 14.4691 9.81212 14.8114C8.42943 15.9445 6.82332 18.5629 6.06113 20.9267L5.70618 22.0282L6.22429 23.3408C7.68307 27.037 9.23824 28.6755 10.8707 28.236C11.8619 27.9691 13.2383 26.5951 14.6108 24.5027C15.9484 22.4632 18.5401 18.1268 18.5401 17.9282C18.5401 17.7632 16.1503 15.4647 15.2936 14.8059C13.8195 13.6721 12.7653 13.4212 11.4342 13.887ZM27.2034 14.0265C26.3511 14.4513 23.2018 17.3895 23.2018 17.7597C23.2018 17.9722 26.3414 22.6658 27.5347 24.2373C29.1145 26.3179 30.7064 27.5526 31.8229 27.5634C32.7771 27.5726 33.9779 26.6629 34.883 25.2452C35.4615 24.339 35.4687 23.9138 34.9391 21.9373C33.6217 17.0197 30.9855 13.5883 28.5205 13.583C28.2867 13.5825 27.694 13.782 27.2034 14.0265Z" fill="#4C9C2D"/>
</svg>
